<?xml version="1.0" encoding="utf-8"?>
<!-- Designed by Vexels.com - 2019 All Rights Reserved - https://vexels.com/terms-and-conditions/  -->
<svg version="1.1" id="Layer_1" xmlns="http://www.w3.org/2000/svg" xmlns:xlink="http://www.w3.org/1999/xlink" x="0px" y="0px"
	 viewBox="0 0 1200 1200" enable-background="new 0 0 1200 1200" xml:space="preserve">
<g>
	<path fill="#34374B" d="M998.657,1119.013c-1.505-6.506-4.423-12.192-8.92-17.382c-17.955-20.728-42.257-34.832-76.481-44.389
		c-1.678-0.469-3.366-0.919-5.052-1.367c-3.825-1.019-7.779-2.073-11.543-3.343c-2.786-0.942-5.556-2.035-6.941-3.654
		c-4.634-5.424-8.681-11.545-6.908-19.536c0.578-2.608,0.929-5.251,1.268-7.807c0,0,0.056-0.427,0.056-0.43
		c11.012-84.59,6.848-176.036-44.656-247.854c-8.795-12.266-19.587-23.305-28.981-32.484c-11.194-10.937-23.017-21.563-34.45-31.84
		c-3.965-3.565-7.929-7.127-11.876-10.71c-2.559-2.322-5.459-5.243-7.558-9.284c-5.826-11.225-12.322-22.795-19.302-34.392
		c-1.777-2.954-3.954-5.622-6.058-8.202c-17.09-20.959-29.638-45.509-43.842-68.436c-1.828-2.951-3.623-5.923-5.419-8.895
		c-6.679-11.059-13.588-22.494-22.143-32.711c-2.223-2.653-4.258-5.434-6.414-8.379c-0.479-0.653-0.96-1.311-1.446-1.97l2.042-1.422
		c2.928-2.045,5.803-4.051,8.711-6.012c24.601-16.577,49.209-33.145,73.866-49.641c0.285-0.19,1.1-0.368,2.192-0.334
		c10.206,0.396,20.147,3.501,29.76,6.505c1.877,0.587,3.753,1.173,5.633,1.74c12.77,3.857,35.13,0.59,43.9-15.576
		c2.315-4.267,5.867-7.858,11.52-11.645c6.804-4.558,12.016-8.519,16.409-12.467c7.634-6.857,11.423-13.665,11.927-21.427
		c0.252-3.906,0.191-7.716,0.127-11.749c-0.013-0.881-0.028-1.766-0.038-2.657c1.395,0.055,2.905,0.139,4.329,0.378
		c9.712,1.632,19.567,4.781,30.132,9.627c8.044,3.69,16.009,6.956,25.171,6.339c8.013-0.536,19.582-2.49,27.488-13.208
		c3.188-4.323,7.57-7.828,13.791-11.031c6.575-3.388,12.758-7.171,18.377-11.24c6.715-4.864,11.064-10.975,12.933-18.163
		c2.294-8.832,2.017-18.118-0.82-27.6c-3.598-12.025-11.377-22.194-24.481-32.004c-11.222-8.399-23.442-11.733-36.291-9.919
		c-21.423,3.031-39.772,7.122-56.102,12.507c-9.452,3.118-18.902,6.249-28.349,9.38c-20.649,6.842-41.998,13.917-63.041,20.724
		c-8.693,2.812-17.621,5.445-26.256,7.992c-6.259,1.846-12.518,3.692-18.754,5.621c-5.042,1.558-9.923,3.27-15.093,5.08
		c-1.006,0.353-2.017,0.707-3.035,1.062l0.056-0.372c0.148-0.989-0.285-1.977-1.11-2.54c-0.828-0.565-1.902-0.603-2.771-0.106
		l-0.206,0.12c0.005-0.826,0.013-1.648,0.018-2.466c0.041-5.049,0.079-9.82-0.069-14.689c-0.688-22.328-4.008-43.969-9.872-64.324
		c-12.664-43.957-31.441-88.315-56.27-126.793c-20.762-32.174-46.439-76.487-81.003-95.319C566.429,50.109,566,50,565.563,50
		h-11.264c-0.341,0-0.679,0.067-0.994,0.197c-6.025,2.483-10.327,7.149-13.541,14.683c-11.693,27.412-12.361,58.027-20.213,86.545
		c-0.626,2.275-1.254,4.549-1.86,6.824c-1.257,4.721-2.683,9.502-4.062,14.125c-1.027,3.447-2.055,6.893-3.029,10.355
		c-0.238,0.848-0.302,1.076-1.916,1.234l-3.206,0.308c-7.448,0.713-15.15,1.451-22.697,2.61
		c-17.995,2.763-35.966,5.728-53.911,8.798c-12.975,2.22-42.203,14.952-54.297,12.094c-0.21-0.05-0.545-0.202-0.67-0.314
		c-4.17-4.004-8.275-8.075-12.378-12.146l-4.098-4.062c-1.613-1.594-3.194-3.226-4.776-4.86c-3.55-3.666-7.22-7.457-11.25-10.793
		c-8.473-7.01-17.388-13.73-26.009-20.227c-21.423-16.157-87.627-60.19-78.726,3.913c1.832,13.199,4.181,28.731,7.714,43.852
		c1.724,7.379,3.621,14.837,5.454,22.048c5.193,20.425,10.562,41.546,12.537,62.943c0.596,6.455,1.516,12.955,2.406,19.242
		c0.746,5.276,1.519,10.732,2.088,16.095c2.022,19.059,6.189,37.437,12.386,54.625c4.381,12.153,10.113,23.974,15.657,35.408
		l2.243,4.633c9.364,19.407,23.469,36.251,43.119,51.492c5.639,4.373,11.567,8.327,17.302,12.149
		c2.046,1.364,4.07,2.713,6.052,4.063c-0.208,1.039-0.423,2.079-0.638,3.119c-0.746,3.606-1.516,7.335-2.006,11.093
		c-6.955,53.321,0,106.046,9.149,158.642c9.008,51.789,36.585,105.184,30.2,158.714c-0.848,7.11-1.362,14.349-1.859,21.352
		c-0.239,3.382-0.48,6.763-0.756,10.14c-0.177,2.162-0.371,4.321-0.563,6.481c-0.376,4.196-0.763,8.536-1.024,12.831
		c-0.066,1.075-0.039,2.126,0.032,3.221c-0.354-0.26-0.705-0.517-1.054-0.774c-3.851-2.819-7.489-5.482-10.566-8.548
		c-5.626-5.602-11.041-11.66-16.278-17.519c-2.224-2.487-4.448-4.975-6.696-7.44c-30.933-33.911-50.978-104.667-105.629-106.288
		c-8.185-0.224-15.756,2.203-23.1,4.578c-15.304,4.943-24.853,14.986-28.383,29.858c-19.639,82.734,55.537,160.315,121.254,197.401
		c2.969,1.675,5.938,3.349,8.858,5.088c18.157,10.807,38.211,17.196,57.195,22.816c14.13,4.179,27.052,5.6,39.523,4.362
		c0.234-0.025,0.402-0.023,0.505-0.025c0.034,0.079,0.078,0.193,0.127,0.351c1.013,3.229,2.073,6.442,3.133,9.659
		c2.051,6.223,4.172,12.658,5.887,19.047c0.76,2.834,0.971,5.857,1.194,9.055c0.139,1.989,0.281,4.046,0.569,6.083
		c0.696,4.94,1.502,9.847,2.355,15.042c0.256,1.556,0.516,3.137,0.778,4.752c-1.492,0.438-3.007,0.878-4.539,1.324
		c-5.318,1.543-10.817,3.142-16.27,4.973l-4.808,1.604c-8.375,2.778-17.037,5.653-25.213,9.394
		c-6.231,2.847-12.608,7.163-18.444,12.482c-6.652,6.066-11.591,14.346-15.542,26.065c-0.079,0.232-0.146,0.474-0.214,0.718
		c-0.055,0.199-0.093,0.402-0.118,0.486c-2.531,3.214-3.505,7.55-2.67,11.894c0.843,4.385,3.405,8.103,7.032,10.201
		c6.654,3.843,14.256,5.689,24.647,5.979c2.31,0.064,4.62,0.099,6.933,0.135c4.469,0.071,9.089,0.143,13.589,0.438
		c1.485,0.097,3.028,0.489,4.66,0.904c1.823,0.466,3.709,0.945,5.715,1.062c36.537,2.156,73.387,5.353,109.763-0.262
		c3.565-0.55,6.897-1.933,10.119-3.27l1.304-0.537c5.509-2.256,8.025-7.097,9.44-10.542c6.214-15.156,10.574-31.463,13.328-49.858
		c5.09-34.001,14.589-67.956,26.653-100.138c1.628-4.344,3.608-8.688,5.523-12.89c1.058-2.32,2.115-4.64,3.126-6.98
		c0.535-1.238,0.943-2.485,1.276-3.524c0.533-0.137,1.055-0.27,1.569-0.4c2.096-0.53,4.077-1.029,6.03-1.795
		c1.558-0.611,3.132-1.197,4.708-1.783c4.999-1.861,10.165-3.784,14.857-6.566c21.841-12.964,39.86-29.633,53.995-50.835
		l1.026-1.393c2.113-2.867,4.049-5.852,6.096-9.009c0.624-0.96,1.26-1.943,1.92-2.946c1.352,0.481,2.735,0.97,4.146,1.469
		c4.912,1.734,9.99,3.527,15.042,5.518c13.412,5.284,25.332,13.822,37.514,26.867c11.372,12.177,19.923,26.758,25.413,43.34
		c7.965,24.053,12.009,46.1,12.363,67.406c0.191,11.538,0.351,23.073,0.512,34.611c0.173,12.414,0.344,24.827,0.555,37.241
		c0.071,4.072,0.267,8.187,0.458,12.169c0.125,2.613,0.25,5.228,0.341,7.84c0.168,4.869,2.159,9.182,5.92,12.829l0.876,0.851
		c23.978,23.395,68.492,11.909,98.384,10.494c21.843-1.034,96.182,18.298,104.159-9.885c0.349-1.232,0.713-2.46,1.077-3.687
		l0.537-1.818c0.069-0.237,0.104-0.484,0.104-0.733v-8.762C998.724,1119.403,998.701,1119.207,998.657,1119.013z M912.719,1071.852
		c2.057,0.67,4.117,1.342,6.165,2.04c16.177,5.526,34.674,12.482,49.459,25.171c5.61,4.815,10.27,9.475,14.25,14.252
		c4.311,5.172,5.383,11.68,3.275,19.9c-0.224,0.871-0.395,1.5-3.552,1.22c-1.907-0.171-3.799-0.514-5.803-0.876
		c-1.8-0.326-3.664-0.662-5.554-0.868c-3.947-0.428-7.94-0.728-11.797-1.016c-0.812-0.061-1.622-0.122-2.432-0.183
		c0.303-11.81-5.482-21.507-10.697-28.761c-4.217-5.867-9.419-11.039-14.451-16.042l-2.231-2.22
		c-5.307-5.314-12.549-6.386-18.365-7.245c-2.078-0.293-4.838,1.569-5.317,3.662c-0.568,2.462,1.841,4.68,2.332,5.103
		c1.087,0.932,2.422,1.044,3.394,1.126l0.407,0.038c4.533,0.504,8.296,2.131,11.189,4.833c9.659,9.027,17.975,17.445,21.94,29.108
		c0.695,2.045,1.187,4.303,1.467,6.715c0.059,0.514-0.015,0.815-0.094,0.917c-0.104,0.127-0.458,0.301-1.123,0.372
		c-3.272,0.339-6.542,0.705-9.811,1.069c-3.753,0.42-7.507,0.84-11.263,1.22c-3.56,0.362-7.127,0.614-10.695,0.866l-0.425,0.036
		c0.318-11.161-3.947-20.514-12.701-27.84c-4.716-3.947-9.648-7.754-14.418-11.436c-2.261-1.744-4.522-3.491-6.768-5.253
		c-1.304-1.026-5.268-4.143-9.462-0.652c-3.239,2.697-4.112,6.493-2.33,10.158c1.059,2.175,2.699,3.865,3.888,4.899
		c5.518,4.805,11.224,9.646,16.964,14.385c4.033,3.328,6.498,7.746,7.756,13.896c-0.945,0.099-1.892,0.222-2.837,0.344
		c-2.302,0.298-4.507,0.583-6.603,0.542c-6.094-0.102-12.187-0.275-18.281-0.448c-8.141-0.234-16.559-0.474-24.855-0.53
		c-7.435-0.033-14.96,0.377-22.233,0.792l-3.802,0.211c-3.995,0.222-6.567,0.227-9.218-2.254c-4.986-4.65-8.031-8.793-7.823-15.067
		l0.041-1.148c0.44-13.185,0.899-26.819,0.616-40.251c-0.372-17.55-1.161-36.666-2.411-58.437
		c-0.685-11.973-1.948-24.771-6.498-37.226c-1.334-3.649-2.478-7.471-3.583-11.169c-2.05-6.847-4.166-13.929-7.654-20.577
		c-9.778-18.632-21.382-33.928-35.474-46.765c-14.858-13.534-32.861-21.021-48.511-26.559c-3.486-1.235-6.964-2.215-10.621-3.226
		c11.011-5.253,22.133-10.965,31.275-19.931c0.718-0.705,1.887-1.243,3.124-1.813c0.851-0.39,1.701-0.784,2.49-1.245
		c1.281-0.749,2.625-1.591,3.784-2.704c0.896-0.858,1.742-1.775,2.585-2.692c1.011-1.103,1.966-2.144,3.002-3.056
		c15.008-13.257,25.09-30.776,32.683-56.805c5.314-18.209,5.482-37.562,0.53-60.91c-0.349-1.632-0.713-3.259-1.082-4.884
		c2.933,2.847,5.875,5.691,8.813,8.533c10.321,9.982,20.995,20.302,31.229,30.692c8.07,8.189,16.544,17.109,23.827,26.821
		c5.714,7.624,10.588,16.182,15.301,24.461l2.549,4.461c10.099,17.58,17.759,32.698,22.306,49.326
		c4.991,18.242,8.006,34.626,9.215,50.085c0.229,2.916,0.372,5.854,0.514,8.793c0.359,7.392,0.728,15.034,2.485,22.342
		c1.408,5.864,0.703,11.413-0.046,17.285c-0.3,2.35-0.609,4.78-0.772,7.227c-0.828,12.521-2.455,25.237-4.026,37.536l-0.682,5.342
		c-0.288,2.282-0.851,4.54-1.446,6.931c-0.662,2.664-1.35,5.416-1.642,8.26c-0.835,8.12-1.207,16.386-1.566,24.379l-0.115,2.534
		c-0.071,1.553,0.685,2.793,1.294,3.789c0.171,0.283,0.349,0.56,0.481,0.84c0.367,0.782,1.1,1.332,1.953,1.467
		c0.851,0.135,1.719-0.163,2.31-0.797c0.206-0.219,0.446-0.428,0.685-0.637c0.581-0.517,1.263-1.12,1.775-1.92
		c0.148,0.242,0.3,0.479,0.463,0.715c1.867,2.689,4.176,5.699,7.148,7.624C894.764,1066.01,903.891,1068.979,912.719,1071.852z
		 M426.649,983.14c-0.527-0.054-1.05-0.107-1.572-0.158c-3.844-0.387-7.475-0.751-11.05-1.395
		c-18.637-3.356-36.051-9.419-50.625-14.904c-7.724-2.911-15.152-6.804-22.336-10.57c-2.378-1.245-4.759-2.493-7.157-3.713
		c-24.309-12.353-43.905-29.905-59.868-45.448c-17.066-16.613-30.6-34.527-40.227-53.245c-9.289-18.064-15.073-34.929-17.682-51.559
		c-2.13-13.577-0.891-26.337,3.68-37.931c2.13-5.398,6.134-9.587,11.278-11.792c8.053-3.45,15.737-5.724,22.839-6.761
		c1.464-0.211,2.904-0.318,4.32-0.318c8.804,0,16.641,4.102,22.856,12.024c6.659,8.485,13.24,17.033,19.822,25.579
		c6.698,8.701,13.398,17.4,20.179,26.034c6.363,8.103,12.917,15.887,20.8,25.082c4.48,5.228,9.136,10.44,13.639,15.48
		c2.437,2.73,4.875,5.459,7.295,8.202c9.334,10.573,18.595,18.757,28.315,25.018c2.064,1.329,4.188,2.847,6.483,4.634
		c0.046,0.104,0.108,0.29,0.136,0.499c3.107,22.446,9.58,45.797,19.788,71.391c2.4,6.015,4.716,12.197,6.955,18.176
		C425.226,979.356,425.936,981.248,426.649,983.14z M780.092,356.484c-22.859,6.754-45.316,15.701-68.595,27.329
		c0.428-2.998,0.876-6.066,1.413-9.064c0.176-0.102,0.413-0.215,0.637-0.29c43.579-14.582,87.173-29.137,130.775-43.657
		c4.505-1.5,9.002-3.028,13.498-4.557c12.299-4.182,25.018-8.508,37.679-12.12c10.876-3.103,22.11-4.845,33.625-6.5
		c11.607-1.668,22.566,1.647,34.468,10.439c11.553,8.537,16.842,19.836,16.165,34.546c-0.364,7.88-3.654,14.118-9.781,18.545
		c-5.88,4.251-10.784,7.421-15.431,9.977c-6.926,3.809-13.526,7.775-18.151,14.386c-7.749,11.077-19.592,9.11-28.171,5.513
		c-3.843-1.613-7.685-3.51-11.403-5.345c-4.543-2.242-9.241-4.561-14.082-6.441c-4.421-1.718-8.996-2.642-13.422-3.534
		c-1.22-0.247-2.422-0.489-3.593-0.744c-0.163-1.51-0.397-3.343-1.665-4.687c-1.115-1.182-4.263-3.542-9.358,0.051
		c-1.161,0.821-2.345,1.608-3.412,2.308c-0.896-1.03-1.775-2.06-2.646-3.081c-3.086-3.618-6.002-7.037-9.404-10.147
		c-8.541-7.812-17.387-12.761-27.043-15.129C800.255,351.355,788.768,353.919,780.092,356.484z M574.573,192.276
		c11.031,0.028,19.307,1.222,26.839,3.873c1.35,0.471,3.384,1.187,5.23,0.102c0.744-0.439,1.696-1.338,1.991-3.108
		c0.443-2.586-2.539-5.489-4.642-5.942c-1.527-0.328-3.053-0.672-4.581-1.015c-6.076-1.366-12.359-2.779-18.705-3.282
		c-11.791-0.933-23.603-1.113-36.711-1.238c-4.572-0.024-9.231,0.298-13.707,0.628c-2.023,0.149-4.046,0.298-6.069,0.413
		c0.164-0.514,0.328-1.027,0.491-1.537c1.178-3.678,2.321-7.253,3.374-10.855c4.249-14.54,8.642-29.575,11.384-44.981
		c2.442-13.723,5.648-27.579,8.748-40.979c0.801-3.459,1.6-6.92,2.39-10.38c0.587-2.578,1.953-5.162,3.303-7.587
		c1.884-3.385,5.542-4.473,9.102-2.711c2.357,1.169,4.571,2.59,6.58,4.223c12.724,10.352,24.268,22.599,34.31,36.399
		c3.529,4.85,7.127,9.651,10.725,14.452c5.429,7.239,11.039,14.727,16.292,22.25c13.213,18.931,23.396,36.321,31.135,53.161
		c7.904,17.207,16.121,35.838,22.66,55.477c7.247,21.763,12.589,40.177,15.098,59.307c1.253,9.574,1.749,19.29,2.152,28.42
		c0.899,20.417-0.484,36.816-4.357,51.609c-0.42,1.609-0.901,2.226-2.149,2.75c-15.151,6.372-27.555,11.683-39.039,16.712
		c-2.297,1.007-4.418,2.254-6.661,3.574c-0.079,0.046-0.16,0.093-0.239,0.14c-1.757-4.738-5.625-6.983-9.661-8.659
		c-3.366-1.397-6.656-1.316-9.559-1.248c-1.599,0.038-3.107,0.076-4.558-0.116l-2.608-0.348c-8.199-1.105-16.676-2.248-25.272-0.609
		c-5.666,1.081-12.326,2.457-18.767,4.478c-3.736,1.173-6.198,3.138-7.321,5.844c-1.183,2.849-0.759,6.259,1.259,10.135
		c4.046,7.768,10.799,12.311,17.644,16.69c-0.187,0.092-0.374,0.185-0.561,0.276c-3.469,1.71-6.747,3.326-10.14,4.51
		c-15.095,5.271-28.949,11.795-45.489,19.775c-1.217,0.588-3.229,0.755-4.782,0.395c-11.754-2.702-19.952-8.444-25.064-17.552
		c-0.313-0.56-0.691-1.089-1.082-1.599c-3.033-3.962-5.89-3.183-7.751-1.835c-2.597,1.883-2.94,4.501-1.016,7.779
		c5.875,10.014,13.128,16.988,22.145,21.279c-0.824,0.41-1.645,0.817-2.462,1.222c-5.097,2.529-9.911,4.917-14.719,7.57
		c-2.819,1.555-5.645,3.099-8.472,4.645c-11.638,6.36-23.671,12.937-35.058,20.19c-5,3.183-8.608,3.741-13.79,2.128
		c-2.429-0.755-4.864-1.502-7.298-2.25c-16.699-5.123-33.965-10.421-49.516-18.752c-12.75-6.831-24.599-15.429-33.499-22.156
		c-20.94-15.828-37.23-35.86-48.415-59.537l-0.751-1.588c-6.556-13.865-13.334-28.204-16.325-43.492
		c-3.02-15.443-6.404-33.784-8.607-52.724c-2.376-20.43-5.067-43.585-10.518-65.612c-3.576-14.453-7.135-30.088-11.199-49.201
		c-2.027-9.532-3.865-19.731-5.785-32.095c-0.955-6.142-0.281-12.076,2.004-17.638c1.37-3.332,2.889-4.238,4.384-4.238
		c0.717,0,1.427,0.208,2.114,0.457c7.686,2.79,15.636,5.675,22.478,9.872c21.903,13.436,40.434,27.535,56.654,43.1
		c8.493,8.152,16.959,16.334,25.417,24.521c1.917,1.858,3.962,3.868,5.922,5.988l0.395,0.433c1.562,1.726,4.471,4.939,8.833,2.404
		c3.398-1.979,3.351-4.763,2.557-7.149c2.194-0.598,4.375-1.211,6.548-1.822c6.975-1.958,13.562-3.808,20.36-5.162
		c10.974-2.185,22.191-4.177,33.038-6.104c9.595-1.705,19.518-3.468,29.256-5.36c20.752-4.03,41.374-5.355,57.021-6.059
		C542.664,192.256,557.786,192.238,574.573,192.276z M554.974,1076.557c-3.08,20.198-7.191,36.09-12.941,50.009
		c-2.74,6.631-8.395,8.329-12.657,8.584c-8.833,0.53-17.882,0.565-26.633,0.601c-3.061,0.013-6.12,0.026-9.18,0.059l-5.111,0.061
		c-7.508,0.099-15.272,0.196-22.869-0.043c-0.419-0.013-0.854-0.015-1.299-0.018c-3.256-0.028-4.867-0.222-5.578-1.889
		c-0.899-2.114-1.222-4.673-0.821-6.526c3.086-14.285,11.486-25.225,24.96-32.51c0.169-0.092,0.353-0.176,0.537-0.262
		c0.857-0.397,2.029-0.945,2.772-2.111c0.67-1.054,0.951-2.172,1.199-3.158c0.08-0.316,0.158-0.631,0.253-0.937
		c0.233-0.746,0.118-1.556-0.309-2.208c-0.429-0.654-1.128-1.08-1.903-1.161c-0.297-0.033-0.607-0.107-0.919-0.176
		c-0.623-0.138-1.375-0.303-2.175-0.303c-0.61,0-1.248,0.097-1.874,0.377c-9.102,4.062-15.671,8.719-20.673,14.654
		c-7.33,8.699-11.996,18.13-13.87,28.033c-0.413,2.18-0.318,4.321-0.218,6.585c0.005,0.102,0.009,0.204,0.014,0.306
		c-1.869-0.135-3.783-0.278-5.684-0.514l-1.027-0.13c-5.933-0.738-12.069-1.505-18.046-2.465c-7.698-1.235-8.814-3.702-8.896-12.159
		c-0.039-4.077,1.327-8.047,3.951-11.479c1.614-2.111,3.261-4.202,4.906-6.29c1.956-2.485,3.913-4.971,5.82-7.492
		c0.745-0.983,2.344-3.977,0.824-6.004c-1.162-1.543-3.607-2.882-5.675-2.462c-1.921,0.392-3.944,1.439-5.552,2.877
		c-6.941,6.213-11.85,12.615-15.008,19.574c-3.573,7.876-4.101,15.487-1.598,22.607c-0.905-0.099-1.775-0.214-2.604-0.382
		c-4.564-0.929-9.119-1.902-13.674-2.875c-3.154-0.672-6.306-1.347-9.464-2.004c-0.789-0.166-1.011-0.451-1.827-2.343l-0.178-0.41
		c-2.66-6.081,0.367-9.61,5.526-14.866l0.535-0.545c7.318-7.479,16.125-13.104,24.554-18.067c6.651-3.919,13.824-6.172,21.418-8.558
		c3.007-0.945,6.015-1.892,8.984-2.944c6.515-2.31,13.25-4.696,19.665-7.792c3.019-1.454,5.317-3.916,7.541-6.297l1.067-1.136
		c1.513-1.586,1.915-4.408,1.43-6.221c-3.226-12.034-4.359-24.16-4.986-33.381c-0.463-6.84-2.956-13.442-5.368-19.829l-0.264-0.698
		c-7.657-20.308-15.975-41.748-24.724-63.726c-6.445-16.19-13.577-35.14-16.638-55.175c-2.299-15.054-2.518-27.443-0.691-38.985
		c1.953-12.337,3.336-25.37,4.109-38.736c0.91-15.765-2.848-31.041-6.484-45.815l-0.583-2.373
		c-2.68-10.934-5.532-22.011-8.29-32.724c-3.716-14.435-7.559-29.36-11.023-44.101c-1.684-7.166-2.813-14.642-3.905-21.871
		c-0.784-5.2-1.597-10.573-2.613-15.841c-1.207-6.259-2.611-12.572-3.969-18.675c-1.595-7.168-3.244-14.583-4.571-21.904
		c-1.3-7.169-1.711-14.709-2.11-22.001l-0.28-5.067c-0.717-12.941-1.459-26.323-1.556-39.459c-0.047-6.565,0.647-13.32,1.318-19.854
		c0.218-2.116,0.435-4.231,0.629-6.344c0.466-5.064,1.108-10.216,1.728-15.199l0.448-3.618
		c20.934,11.073,43.378,18.278,68.129,25.521c-0.987,0.816-1.942,1.632-2.871,2.499l-1.409,1.317
		c-8.45,7.894-17.189,16.055-25.668,24.215c-2.06,1.982-3.079,4.513-2.795,6.943c0.26,2.218,1.59,4.188,3.653,5.406
		c4.796,2.829,8.567-0.698,9.806-1.86l5.153-4.833c5.111-4.8,10.221-9.601,15.408-14.317c14.299-13.003,30.278-23.942,47.492-32.514
		c6.617-3.294,13.229-6.599,19.84-9.905c20.217-10.109,41.123-20.562,61.843-30.487c12.134-5.811,24.647-11.395,36.747-16.795
		c8.721-3.892,17.743-7.917,26.564-12.002l3.924-1.816c30.111-13.942,61.249-28.358,91.66-43.005
		c16.086-7.746,33.956-14.423,56.245-21.013c14.545-4.3,28.433-1.972,42.474,7.115c10.481,6.785,16.18,16.706,17.42,30.329
		c0.833,9.114-2.651,16.768-10.646,23.404c-3.598,2.984-7.886,6.45-12.429,9.527c-7.16,4.847-12.477,10.392-16.251,16.95
		c-3.743,6.498-9.679,9.133-19.243,8.524c-7.446-0.471-14.222-3.268-21.082-6.342c-7.858-3.52-16.587-5.327-28.298-5.858
		c-0.726-0.032-1.451-0.028-2.103-0.038c-0.354-1.679-0.721-3.416-2.055-4.688c-2.279-2.182-5.21-1.949-8.714,0.7
		c-5.136,3.893-10.259,7.806-15.383,11.717c-12.136,9.266-24.685,18.847-37.205,27.999c-24.978,18.253-50.538,39.786-78.141,65.829
		c-11.272,10.635-23.328,20.865-34.986,30.758c-7.163,6.08-14.57,12.365-21.739,18.693c-9.628,8.502-19.219,17.351-28.493,25.91
		c-4.056,3.743-8.114,7.486-12.185,11.212c-3.7,3.382-2.712,6.147-1.231,7.868c1.025,1.194,2.218,1.841,3.547,1.925
		c2.204,0.191,3.911-1.395,4.732-2.136l15.07-13.61c3.333-3.015,6.654-6.045,9.976-9.075c7.157-6.529,14.558-13.279,21.963-19.752
		c19.568-17.109,39.57-34.39,58.912-51.102l11.146-9.632c0.935-0.809,2.017-1.521,3.163-2.276c0.57-0.377,1.143-0.755,1.701-1.146
		c0.069-0.048,0.135-0.101,0.199-0.154l14.117-12.066c0.061,0.075,0.122,0.15,0.181,0.227c1.912,2.487,3.845,4.959,5.78,7.43
		c4.647,5.943,9.455,12.088,13.85,18.326c3.048,4.33,5.801,9.051,8.459,13.616c1.319,2.262,2.638,4.526,4,6.759l9.643,15.842
		c9.727,15.986,19.786,32.518,29.793,48.708c4.092,6.621,8.752,13.089,12.798,18.632c6.46,8.849,12.215,19.309,17.596,31.973
		c2.844,6.697,5.258,13.842,7.181,21.242c1.951,7.497,3.341,15.006,4.133,22.319c0.802,7.395,1.451,15.284,0.777,22.867
		c-2.129,23.855-7.797,41.677-17.84,56.082c-3.921,5.628-8.729,10.891-13.376,15.979c-1.207,1.324-2.411,2.643-3.606,3.972
		c-11.337,12.62-26.136,22.317-45.239,29.65c-5.004,1.92-10.015,4.018-14.858,6.048c-3.236,1.357-6.473,2.712-9.727,4.023
		c-10.837,4.37-22.897,6.799-39.108,7.873c-16.65,1.105-30.177,0.935-42.571-0.542c-14.712-1.747-30.354-5.6-47.821-11.775
		c-2.782-0.98-5.633-1.793-8.39-2.574l-2.907-0.843c-1.073-0.339-2.541-0.802-4.018-0.201c-1.229,0.502-2.201,1.289-3.059,1.981
		c-0.286,0.232-0.573,0.463-0.867,0.677c-0.586,0.428-0.968,1.082-1.052,1.803c-0.084,0.723,0.136,1.446,0.609,1.999
		c0.194,0.227,0.368,0.497,0.549,0.764c0.646,0.957,1.529,2.269,3.075,2.758c4.86,1.546,9.779,3.249,14.536,4.897
		c13.398,4.64,27.253,9.437,41.846,11.436c10.594,1.454,24.571,3.038,38.747,2.462c0.73-0.031,1.458-0.092,2.212-0.171
		c-0.581,1.472-1.147,2.872-1.763,4.25c-5.148,11.489-7.321,23.786-9.424,35.68l-0.844,4.736
		c-2.633,14.527-6.865,28.362-10.658,39.981c-5.373,16.462-11.464,35.12-16.126,53.645c-3.609,14.341-5.876,29.207-8.066,43.587
		L554.974,1076.557z M602.996,944.865c0.632-4.902,1.23-9.531,2.078-14.11c0.369-1.994,0.721-3.993,1.072-5.992
		c1.683-9.562,3.422-19.447,7.173-28.591c1.625-3.957,3.028-5.187,6.256-5.482c16.587-1.515,31.873-7.407,46.11-13.315
		c0.463-0.194,0.787-0.303,1.118-0.303c0.354,0,0.716,0.125,1.266,0.402c2.108,1.067,4.367,1.495,6.552,1.907
		c0.81,0.155,1.622,0.308,2.419,0.497c0.863,0.206,1.727,0.405,2.699,0.629c-0.051,0.099-0.099,0.199-0.15,0.298
		c-1.059,2.103-2.06,4.09-3.313,5.719l-3.463,4.517c-6.501,8.49-13.223,17.267-20.394,25.342c-2.854,3.208-6.333,5.859-10.018,8.668
		c-2.057,1.566-4.186,3.186-6.195,4.915c-9.33,8.021-20.361,12.495-32.039,17.231l-1.557,0.632
		C602.741,946.831,602.868,945.843,602.996,944.865z"/>
	<path fill="#34374B" d="M337.135,205.256c-13.255-17.504-31.572-27.485-49.391-35.664c-3.07-1.409-6.357-2.219-9.168-2.825
		c-4.415-0.951-8.076-0.439-10.887,1.524c-2.816,1.967-4.564,5.243-5.193,9.737c-0.152,1.078-0.25,2.163-0.353,3.312l-0.154,1.635
		c-0.017,0.171-0.017,0.342,0,0.513l0.267,2.884c0.196,2.175,0.4,4.407,0.668,6.631c1.492,12.344,4.473,24.967,8.856,37.52
		c2.945,8.432,6.372,17.221,10.478,26.867c1.785,4.196,4.87,6.412,8.739,6.412c1.236,0,2.553-0.227,3.933-0.686
		c9.712-3.24,20.847-7.326,30.083-14.842c6.195-5.039,13.216-10.751,17.756-18.74c1.549-2.725,4.142-7.285,1.627-12.151
		C342.309,213.34,340.028,209.075,337.135,205.256z M331.776,225.081c-0.923,1.352-2.024,2.858-3.308,4.142
		c-9.092,9.101-20.42,15.581-33.668,19.262c-0.648,0.181-1.288,0.388-1.959,0.614c-4.226-7.018-6.799-14.495-9.512-22.376
		l-0.63-1.826c-3.876-11.208-6.668-22.954-8.296-34.911c-0.303-2.227-0.29-4.522-0.276-6.953c0.005-1.007,0.01-2.013-0.006-3.016
		c-0.003-0.129,0.001-0.237,0.008-0.328c0.079,0.023,0.172,0.053,0.278,0.094l0.66,0.252c2.647,1.013,5.384,2.06,7.647,3.508
		l2.886,1.845c8.423,5.383,17.135,10.948,25.316,16.888C318.82,208.014,325.648,215.478,331.776,225.081z"/>
	<path fill="#34374B" d="M425.713,376.08c-1.844,0.546-3.281,1.776-3.944,3.377c-0.607,1.464-0.513,3.061,0.264,4.493
		c1.156,2.134,4.063,3.532,6.207,3.652c2.186,0.116,4.283-0.59,6.125-1.215l0.591-0.2c1.319-0.442,2.012-0.303,3.075,0.634
		c5.377,4.739,11.648,8.178,18.641,10.223c9.156,2.675,19.477,5.691,30.235,5.24c0.145,0.148,0.309,0.279,0.488,0.39
		c0.416,0.258,0.893,0.391,1.372,0.391c0.216,0,0.433-0.027,0.646-0.082c1.972-0.503,3.957-0.969,5.942-1.436
		c4.431-1.04,9.012-2.117,13.436-3.615c11.654-3.944,21.264-10.974,28.562-20.893c2.377-3.23,2.082-6.71-0.773-9.083
		c-2.79-2.319-6.267-1.97-8.854,0.887c-0.288,0.317-0.554,0.66-0.817,1.003c-0.272,0.357-0.53,0.693-0.742,0.867
		c-1.134,0.936-2.248,1.905-3.364,2.875c-2.813,2.448-5.468,4.759-8.429,6.53c-4.647,2.778-9.757,5.046-14.777,6.557
		c-5.751,1.728-10.562,2.462-14.705,2.264c-13.742-0.685-27.157-4.815-39.875-12.276
		C437.874,372.472,431.727,374.295,425.713,376.08z"/>
	<path fill="#34374B" d="M622.167,363.325c0.188,1.193,0.423,2.676,1.502,3.844c1.691,1.824,3.631,3.323,5.508,4.773l0.736,0.57
		c6.636,5.163,14.255,7.756,22.744,7.756c3.267,0,6.666-0.384,10.186-1.155c8.378-1.832,15.551-7.062,20.336-14.788
		c0.308-0.02,0.606-0.033,0.894-0.047c1.673-0.078,3.405-0.158,4.792-1.267c3.794-3.025,0.919-6.794-0.025-8.033l-0.306-0.404
		c-0.412-0.555-0.85-1.092-1.288-1.63c-0.295-0.364-0.593-0.727-0.881-1.097c-1.889-2.448-4.222-3.668-6.585-3.443
		c-1.329,0.127-3.825,0.87-5.607,4.408c-2.951,5.852-7.316,9.227-13.346,10.321c-1.125,0.204-2.243,0.457-3.359,0.71
		c-1.202,0.274-2.401,0.549-3.613,0.749c-8.912,1.458-15.301,0.35-20.855-3.713c-1.108-0.811-2.483-1.818-4.168-2.145
		c-1.316-0.252-2.544-0.031-3.618,0.167c-0.339,0.062-0.677,0.126-1.013,0.166c-0.751,0.087-1.429,0.495-1.854,1.12
		c-0.425,0.626-0.56,1.406-0.367,2.136C622.063,362.64,622.111,362.983,622.167,363.325z"/>
</g>
</svg>