<?xml version="1.0" encoding="utf-8"?>
<!-- Designed by Vexels.com - 2019 All Rights Reserved - https://vexels.com/terms-and-conditions/  -->
<svg version="1.1" id="Layer_1" xmlns="http://www.w3.org/2000/svg" xmlns:xlink="http://www.w3.org/1999/xlink" x="0px" y="0px"
	 viewBox="0 0 1200 1200" enable-background="new 0 0 1200 1200" xml:space="preserve">
<g>
	<path fill="#35374B" d="M1042.778,731.113c0.087-3.138,0.077-6.302-0.034-9.493c-1.488-42.87-40.116-99.406-87.049-58.936
		c-19.342,16.678-27.764,50.384-37.515,73.187c-10.624,24.846-24.617,54.14-43.402,73.722c-7.333-39.19-22.291-76.024-31.23-114.858
		c-7.331-31.85-13.51-63.969-21.461-95.679c-8.977-35.805-19.073-74.438-34.207-108.105c-8.175-18.186-17.235-36.732-27.238-53.977
		c-9.143-15.762-20.319-23.441-16.68-39.326c4.199-18.328,17.425-34.276,20.839-53.944c3.191-18.385,3.329-37.963,1.523-56.508
		c-3.729-38.306-19.256-72.883-30.834-109.126c-11.013-34.474-30.638-187.154-83.285-103.199
		c-11.517,18.366-21.524,37.851-29.252,58.104c-3.462,9.072-5.191,21.522-10.32,29.725c-6.765,10.821-6.555,8.874-19.766,12.697
		c-36.995,10.707-73.818,21.715-110.075,34.848c-22.613-21.336-39.649-46.805-59.511-70.491
		c-23.525-28.055-45.829-32.916-58.611,5.74c-19.205,58.083-20.334,123.087-16.004,183.477
		c2.993,41.744,14.166,78.697,32.11,116.193c-61.249,12.698-121.434,25.308-177.508,55.974
		c-32.454,17.749-67.67,80.662-29.489,112.38c16.586,13.767,50.033,10.109,69.47,6.785c11.217-1.918,22.106-4.23,30.828-11.772
		c4.078-3.526,18.568-38.159,13.236-36.323c33.158-11.416,75.79-10.875,111-14.938c38.265-4.415,77.047-9.928,115.269-12.757
		c-2.073,14.167-3.256,45.007-10.719,56.843c-5.608,8.895-29.392,18.603-39.809,22.625c-31.411,12.128-46.098-31.573-78.513-22.695
		c-12.814,3.51-33.32,14.951-45.002,21.857c-14.124,8.349-20.892,20.491-20.463,37.175c1.039,40.415,36.358,54.949,70.671,55.174
		c34.886,0.228,68.868-9.198,102.954-14.254c-3.935,15.761-1.386,33.464-5.616,48.639c-4.411,15.827-18.409,31.773-27.166,45.558
		c-19.379,30.505-38.916,60.936-52.241,94.714c-13.271,33.641-20.077,69.834-24.301,105.632
		c-1.594,13.506,2.245,42.196-5.014,53.385c-8.515,13.125-35.663,12.613-49.563,15.531c-26.725,5.611-70.73,24.471-73.055,56.697
		c-2.645,36.665,49.048,24.083,72.135,22.733c30.189-1.765,60.18,1.551,90.529,1.195c41.087-0.482,46.161-18.017,56.109-55.079
		c20.28-75.557,65.379-147.935,132.128-191.501c17.465,14.294,32.587,31.256,52.663,42.871c5.845,3.382,21.63,6.999,25.585,11.595
		c5.423,6.302,2.529,23.47,2.109,33.24c-1.753,40.76-11.317,85.308-6.178,125.97c5.361,42.423,55.334,38.275,89.358,36.654
		c18.833-0.897,88.146,2.506,99.42-15.287c20.779-32.794-45.827-68.261-67.802-77.347c11.592-21.372,26.245-41.222,37.312-63.138
		c4.161-8.24,8.384-25.994,14.962-32.213c6.315-5.969,22.921-9.364,31.283-13.81c45.436-24.162,83.781-58.543,113.061-100.771
		C1022.723,811.461,1041.602,773.669,1042.778,731.113z M273.259,563.578c-0.45,0.07-0.896,0.173-1.341,0.279
		c-0.279,0.066-0.557,0.134-0.841,0.183c-2.102,0.372-3.536,1.239-4.264,2.578c-0.607,1.117-0.636,2.453-0.081,3.761
		c1.041,2.466,4.631,2.865,5.962,2.806c1.061-0.047,2.092-0.186,3.169-0.372c-0.557,1.285-1.082,2.484-1.618,3.678
		c-1.826,4.063-3.666,8.122-5.504,12.179l-2.322,5.128c-2.704,5.975-7.222,8.904-14.22,9.217
		c-9.634,0.431-19.443,1.024-29.988,1.814c-3.818,0.286-7.628,0.674-11.437,1.065c-3.99,0.407-8.115,0.83-12.16,1.115
		c-3.009,0.21-6.914,0.364-10.458-0.323c-3.616-0.702-6.639-2.891-9.802-7.094c-6.32-8.396-8.723-18.108-7.348-29.691
		c0.877-7.387,2.22-14.775,3.419-21.027c2.077-10.818,8.194-19.617,19.252-27.694c9.993-7.301,21.46-12.6,32.548-17.725l4.335-2.009
		c10.127-4.718,21.605-10.066,32.887-14.874c27.044-11.525,56.548-19.866,87.692-24.79c7.857-1.242,15.902-2.274,23.683-3.271
		l4.355-0.561c0.693-0.089,1.421-0.134,2.166-0.134c0.813,0,1.644,0.053,2.47,0.159c3.313,0.426,5.792,1.263,7.905,4.121
		c13.908,18.804,28.156,33.424,43.557,44.697c13.711,10.035,29.751,16.959,49.035,21.166c2.61,0.569,5.217,1.153,7.823,1.735
		c2.374,0.531,4.783,1.07,7.208,1.601c-2.822,0.261-5.602,0.707-8.345,1.148c-1.945,0.313-3.886,0.626-5.825,0.866
		c-11.675,1.447-23.487,3.241-34.909,4.976c-8.195,1.244-16.668,2.532-25.01,3.678c-11.899,1.636-23.814,3.167-35.728,4.698
		c-12.833,1.649-26.105,3.355-39.144,5.171c-13.67,1.902-27.526,4.063-40.926,6.151c-5.897,0.92-11.795,1.839-17.695,2.739
		C285.59,561.665,279.425,562.617,273.259,563.578z M529.495,533.894c13.34,0.52,37.921,1.794,45.461-8.364
		c-8.254-4.237-9.409-7.519-19.237-9.715c-9.259-2.069-24.799-12.058-33.178-9.81c-0.503,9.247,8.776,14.172,15.881,18.13
		C386.555,534.292,346.96,354.533,359.63,237.533c1.962-18.115,3.636-36.31,7.128-54.213c2.486-12.745,6.587-42.899,17.764-51.319
		c16.406-12.36,35.365,24.436,44.256,36.145c12.633,16.639,27.21,31.1,40.603,46.925c-15.116,8.346-69.513,26.622-68.163,47.506
		c10.352,1.064,24.435-14.106,33.677-19.06c13.124-7.034,26.621-13.555,40.259-19.514c32.245-14.091,66.257-23.273,100.054-32.801
		c4.44-1.252,8.886-2.65,13.368-3.758c3.789-0.936,8.911-2.869,12.851-2.763c0.967,0.026,9.701,2.599,8.613,2.825
		c13.717-2.85,14.31-18.676,19.17-32.741c8.34-24.137,22.345-76.243,46.253-89.999c21.735-12.506,34.026,65.507,38.161,81.798
		c8.808,34.701,22.411,67.509,32.482,101.797c19.224,65.448,6.853,132.215-39.047,183.504
		c-13.098,14.636-27.51,27.598-42.509,40.235c-3.892,3.279-35.123,23.816-17.054,24.422c11.122,0.373,38.444-30.389,46.645-38.121
		c14.012-13.21,29.092-27.715,39.264-44.187c70.316,87.272,73.537,211.514,105.333,314.209
		c16.03,51.774,31.644,96.178,20.571,151.396c-10.979,54.749-32.259,103.686-60.745,151.399
		c-6.537,10.949-18.624,22.994-8.826,34.678c7.445,8.877,25.415,13.354,35.351,19.492c10.029,6.195,24.935,14.57,30.637,25.464
		c8.743,16.705-9.427,18.258-23.159,19.017c1.844-12.894-0.781-24.587-8.753-35.058c-5.226-6.864-15.079-15.232-14.817-1.126
		c0.188,10.166,15.073,16.432,10.786,28.858c-3.879,11.243-20.346,10.521-31.259,11.033c-2.073-14.071-16.728-57.411-38.059-47.496
		c0.597,11.715,39.005,34.817,22.666,48.044c-8.123,6.576-66.852,3.561-75.017-3.738c-15.666-14.004-6.112-57.045-4.641-74.995
		c2.279-27.813,6.27-55.622,7.415-83.508c1.245-30.322,0.442-62.328-12.961-90.033c16.445-2.975,32.469-9.7,46.942-17.938
		c7.45-4.24,43.803-23.728,43.137-33.229c-1.126-16.045-31.837,11.818-36.656,15.011c-15.969,10.581-33.22,17.713-51.635,22.836
		c-67.564,18.798-157.229-1.158-181.171-74.496c-10.372-31.771-14.152-76.169,3.766-101.604
		c47.598-2.49,95.521-22.684,138.896-41.069c13.833-5.864,112.663-56.432,91.438-68.678c-9.272-5.349-47.764,30.861-57.396,36.308
		c-18.314,10.359-37.932,19.16-57.356,27.221c-47.047,19.525-96.71,31.945-146.323,42.933
		c-37.376,8.278-101.382,30.056-135.199,2.992c-13.969-11.179-22.739-32.284-11.631-48.791c6.03-8.96,16.419-11.203,25.805-15.194
		c9.163-3.895,19.706-14.591,29.462-15.272c16.682-1.166,34.311,24.516,47.032,30.647c9.681,4.666,12.194,2.141,24.373-3.966
		c11.256-5.645,22.56-11.195,33.684-17.099c42.811-22.724,81.016-52.961,118.742-83.185c6.733-5.394,60.89-46.774,50.771-51.544
		c-9.224-4.347-48.117,36.543-56.193,43.217c-28.838,23.831-61.579,48.509-94.759,66.326c4.485-20.935,9.657-42.414,12.542-63.495
		C527.193,533.807,528.299,533.847,529.495,533.894z M876.41,830.163c-0.117-1.412,0.318-2.188,1.682-3.812
		c13.273-15.79,23.987-33.247,31.835-46.691c9.192-15.744,16.732-32.458,24.025-48.622c2.384-5.29,4.771-10.584,7.219-15.851
		c5.99-12.904,11.777-24.31,17.688-34.868c4.792-8.553,12.871-13.067,24.017-13.418c1.438-0.043,2.83-0.066,4.178-0.066
		c4.262,0,8.085,0.226,11.599,0.682c9.13,1.176,15.599,5.176,19.77,12.225c7.105,12.001,10.774,25.45,10.902,39.978
		c0.183,20.811-2.652,39.174-8.662,56.137c-3.771,10.642-8.639,21.162-13.347,31.333l-2.474,5.357
		c-6.24,13.589-15.523,25.608-24.498,37.232c-3.138,4.067-6.385,8.27-9.471,12.502c-6.751,9.253-15.431,16.996-23.824,24.488
		c-2.077,1.853-4.153,3.705-6.204,5.581c-18.793,17.19-41.118,32.13-72.388,48.444c-2.855,1.491-5.761,2.883-8.667,4.275
		c-0.023,0.01-0.046,0.023-0.069,0.033c6.794-21.292,11.871-42.675,15.095-63.588C877.316,865.281,877.853,848.005,876.41,830.163z
		 M623.236,887.499c0.117-0.069,0.252-0.117,0.384-0.173c0.679-0.285,1.705-0.718,2.362-1.786c0.98-1.596,1.873-1.652,4.95-1.183
		c0.654,0.097,1.308,0.193,1.952,0.252c16.584,1.481,29.249,1.295,41.075-0.606c1.573-0.255,2.005-0.155,2.825,1.512
		c6.049,12.299,9.296,25.839,9.93,41.395c0.173,4.234,0.387,8.466,0.603,12.691l0.15,3.005
		c-15.23-3.107-61.099-36.359-70.497-51.299L623.236,887.499z M382.201,1067.832l2.369-1.962c0.239-0.198,0.532-0.379,0.819-0.568
		c1.061-0.687,2.516-1.629,2.918-3.334c0.559-2.377,0.897-4.781,1.225-7.105c0.193-1.374,0.387-2.751,0.626-4.115
		c0.248-1.415,0.616-2.84,1.004-4.351c0.802-3.112,1.63-6.334,1.421-9.657c-1.219-19.475,2.271-38.884,5.647-57.654l1.051-5.868
		c3.969-22.399,7.828-42.492,14.883-61.611c5.708-15.464,12.992-32.097,22.272-50.854c6.437-13.014,14.056-25.452,22.628-39.202
		c2.932-4.705,5.908-9.38,8.884-14.055c7.289-11.451,14.794-23.241,21.569-35.377c0.051,0.277,0.102,0.555,0.151,0.835
		c0.995,5.458,2.022,11.105,3.213,16.615c5.83,26.982,20.621,49.297,45.219,68.219c4.895,3.766,10.558,6.456,16.036,9.057
		l1.575,0.748c4.834,2.306,9.833,4.687,15.697,5.654c3.44,0.567,6.787,1.794,10.332,3.092c3.026,1.109,6.153,2.255,9.4,2.98
		c5.196,1.166,10.535,1.792,15.698,2.397c0.461,0.053,0.921,0.107,1.382,0.163c-0.692,0.501-1.387,1.003-2.079,1.504
		c-5.257,3.799-10.695,7.731-15.877,11.81c-15.808,12.444-31.087,27.002-49.537,47.205c-25.771,28.219-45.538,55.684-60.435,83.966
		c-7.153,13.584-11.37,28.249-14.244,39.507c-3.656,14.314-7.798,30.537-11.202,46.449c-2.074,9.695-6.688,16.609-14.104,21.134
		c-0.793,0.489-2.822,0.377-4.204,0.3c-5.791-0.305-11.579-0.659-17.368-1.013c-7.915-0.481-15.832-0.962-23.754-1.331
		c-8.361-0.389-16.858-0.641-25.075-0.886c-4.547-0.135-9.095-0.27-13.649-0.427c-0.464-0.015-1.02-0.13-1.608-0.252
		c-0.196-0.038-0.392-0.079-0.621-0.125c1.098-6.693,4.673-11.925,10.931-15.996c4.148-2.697,8.459-5.334,12.626-7.884l3.223-1.972
		c4.541-2.792,5.943-6.774,3.751-10.657c-2.2-3.901-6.469-4.855-10.869-2.438l-1.176,0.646c-6.549,3.598-13.32,7.319-19.799,11.342
		c-8.427,5.229-13.538,13.093-15.191,23.376c-0.28,1.741-0.228,3.448-0.162,5.25l-2.5-0.234c-4.228-0.392-8.533-0.789-12.833-1.227
		c-1.692-0.171-3.379-0.387-5.068-0.601c-2.617-0.333-5.322-0.677-8.035-0.863c-2.967-0.198-3.432-0.725-3.475-0.786
		c-0.042-0.056-0.384-0.631,0.285-3.283c1.638-6.474,4.344-12.031,8.044-16.518c3.159-3.83,6.839-7.713,11.581-12.217
		c4.187-3.98,9.388-6.141,15.896-6.606c1.543-0.107,2.658-1.013,3.554-1.741c0.243-0.196,0.483-0.4,0.729-0.557l3.639-2.354
		l-3.784-2.11c-0.276-0.155-0.548-0.351-0.822-0.545c-0.962-0.679-2.157-1.522-3.71-1.568c-12.692-0.267-21.378,6.96-26.814,12.518
		c-8.741,8.942-14.425,18.271-17.379,28.519c-0.721,2.504-0.995,5.033-1.284,7.713c-0.059,0.547-0.118,1.102-0.183,1.664
		c-0.276,0.015-0.557,0.031-0.84,0.048c-2.641,0.148-5.635,0.316-8.616,0.623c-2.764,0.285-5.523,0.715-8.193,1.132
		c-1.112,0.173-2.224,0.346-3.334,0.509c-0.318,0.046-0.635,0.104-0.952,0.168c-0.336,0.064-0.671,0.135-1.009,0.16
		c-4.647,0.318-4.942,0.086-5.408-4.227c-0.766-7.09,0.922-12.887,5.159-17.724c10.305-11.767,22.214-20.633,35.396-26.353
		c6.534-2.835,13.815-4.55,20.858-6.209c3.116-0.733,6.231-1.466,9.305-2.293c2.949-0.794,5.92-1.529,8.891-2.265
		c6.24-1.542,12.692-3.135,18.898-5.293c4.299-1.494,8.23-3.825,12.032-6.079c0.352-0.209,0.705-0.417,1.057-0.626
		c0.332,0.868,0.832,1.596,1.256,2.214c0.179,0.262,0.361,0.524,0.515,0.789L382.201,1067.832z"/>
	<path fill="#35374B" d="M605.891,453.165c4.224-7.163,4.817-15.318,5.29-21.868c0.14-1.875-1.382-3.521-1.85-3.98
		c-0.957-0.935-1.977-1.368-2.982-1.265c-1.807,0.173-3.145,1.467-4.122,2.411l-0.339,0.323c-0.987,0.933-0.992,2.149-0.967,2.77
		c-0.405,1.601-0.723,3.247-1.038,4.894c-0.667,3.46-1.295,6.728-2.725,9.455c-7.55,14.407-20.592,21.97-37.847,28.893
		c-10.248,4.114-20.6,1.736-29.375-1.134c-2.915-0.954-5.76-2.216-8.772-3.554c-0.408-0.182-0.821-0.365-1.234-0.547
		c0.528-0.679,0.986-1.288,1.412-1.916c5.62-8.27,10.29-15.924,10.497-25.847c0.089-4.329-1.013-7.512-3.278-9.461
		c-2.206-1.9-5.362-2.51-9.395-1.826l-0.774,0.132c-6.021,1.029-12.248,2.093-17.906,4.612c-5.196,2.313-10.129,5.252-14.901,8.095
		c-2.602,1.551-5.205,3.102-7.856,4.556c-0.719,0.394-1.443,0.772-2.164,1.149c-3.173,1.658-6.455,3.373-9.251,6.387
		c-3.524,3.797-4.953,8.125-4.023,12.187c0.888,3.874,3.846,6.973,8.329,8.722c3.658,1.428,7.989,2.994,12.393,3.788
		c7.975,1.442,18.378,2.404,28.443-2.962c2.685,1.611,5.336,3.279,8.002,4.956l0.968,0.608c-1.823,4.948-4.61,7.866-8.863,9.352
		c-15.022,5.249-26.631,5.892-37.653,2.091c-3.622-1.249-6.942,0.118-8.665,3.574c-1.8,3.612-0.725,7.39,2.677,9.398l0.548,0.327
		c1.912,1.14,4.079,2.433,6.517,2.851c3.4,0.587,6.77,0.88,10.122,0.88c12.356,0,24.446-3.995,36.694-12.085
		c4.439-2.933,6.85-7.293,8.625-11.789c1.392,0.23,2.764,0.475,4.121,0.716c4.545,0.81,8.839,1.574,13.295,1.756
		c17.47,0.725,31.368-8.147,41.539-15.945C596.608,468.332,601.499,460.605,605.891,453.165z"/>
	<path fill="#35374B" d="M652.552,180.692c10.5,4.093,21.096,6.148,31.649,6.148c4.504,0,9.003-0.374,13.479-1.125
		c10.935-1.833,12.78-3.953,13.169-15.128l0.01-0.252l-0.041-0.249c-0.626-3.918-1.211-7.842-1.799-11.767
		c-1.344-8.998-2.736-18.302-4.593-27.388c-2.608-12.762-6.003-22.704-10.685-31.293c-2.382-4.366-5.415-6.953-9.019-7.691
		c-3.591-0.737-7.382,0.444-11.385,3.597c-1.005,0.79-2.145,1.687-3.069,2.845l-1.944,2.43c-3.463,4.322-7.044,8.792-10.413,13.333
		c-9.543,12.862-15.765,27.378-18.493,43.14C637.283,169.615,640.965,176.175,652.552,180.692z M697.255,170.711l-0.046,1.333
		l-0.076,0.013c-9.278,1.515-18.047,2.947-26.951,1.27c-4.443-0.84-9.171-2.068-14.457-3.756c-1.321-0.421-1.832-0.664-1.952-0.664
		c-0.023,0-0.031,0.009-0.028,0.025c-0.097-0.351,0.051-1.677,0.168-2.742c1.909-17.367,10.011-32.252,16.854-43.281
		c2.736-4.407,6.375-10.195,10.248-15.878c0.491-0.721,1.232-1.41,2.097-2.174c3.01,4.67,4.581,9.531,6.23,14.636
		c4.234,13.105,6.031,26.491,7.784,41.374C697.499,164.041,697.375,167.432,697.255,170.711z"/>
	<path fill="#35374B" d="M543.665,388.467c8.001,3.864,16.489,5.854,25.227,5.918l0.116,0.001l2.671-0.218
		c2.573-0.207,5.147-0.416,7.719-0.637c0.728-0.062,1.448-0.207,2.16-0.359c19.757-4.181,35.929-15.739,48.065-34.355
		c3.405-5.224,5.581-8.203,10.716-8.69c1.705-0.163,2.962-1.655,3.72-2.878c0.992-1.606,1.267-3.018,0.809-4.201
		c-0.87-2.242-3.499-3.878-5.647-4.336c-1.797-0.382-3.547,0.211-4.957,0.691c-0.293,0.1-0.583,0.2-0.868,0.286
		c-0.529,0.162-1.074,0.298-1.618,0.435c-2.649,0.669-5.947,1.503-7.935,4.943c-4.57,7.9-11.037,14.361-18.398,21.391
		c-5.123,4.891-10.836,9.67-17.892,11.493c-11.612,3.002-25.309,5.251-38.884-0.851c-2.267-1.018-4.495-1.132-6.278-0.317
		c-1.471,0.673-2.547,1.94-3.033,3.569C538.318,383.852,539.766,386.582,543.665,388.467z"/>
	<path fill="#35374B" d="M462.943,410.589c-1.826-1.405-5.023-0.321-6.334,1.017c-1.267,1.295-2.396,2.928-3.449,4.989
		c-2.294,4.485-6.09,7.632-11.946,9.904c-10.188,3.952-18.655,6.431-27.149-0.429c-1.436-1.163-3.322-1.494-5.168-0.907
		c-2.043,0.646-3.676,2.317-4.261,4.364c-0.696,2.434-1.102,5.009-1.209,7.657c-0.08,2.031,1.61,4.204,3.233,4.96
		c1.727,0.805,3.62-0.017,5.079-0.823c0.313-0.173,0.58-0.377,0.813-0.594c5.578,3.101,11.053,4.643,16.532,4.643
		c3.18,0,6.361-0.519,9.563-1.555c13.221-4.276,22.072-13.482,26.306-27.357C465.586,414.396,464.401,411.71,462.943,410.589z"/>
</g>
</svg>